<?xml version="1.0" encoding="UTF-8"?>
<svg width="512" height="512" version="1.1" viewBox="0 0 512 512" xmlns="http://www.w3.org/2000/svg">
  <path fill="#4299E1" d="M464 192H48c-26.5 0-48-21.5-48-48V112c0-26.5 21.5-48 48-48h416c26.5 0 48 21.5 48 48v32c0 26.5-21.5 48-48 48zm-336 64h208c8.8 0 16 7.2 16 16v224c0 8.8-7.2 16-16 16H128c-8.8 0-16-7.2-16-16V272c0-8.8 7.2-16 16-16zm304 0h32c8.8 0 16 7.2 16 16v224c0 8.8-7.2 16-16 16h-32c-8.8 0-16-7.2-16-16V272c0-8.8 7.2-16 16-16zM168 160h24c4.4 0 8-3.6 8-8V88c0-4.4-3.6-8-8-8h-24c-4.4 0-8 3.6-8 8v64c0 4.4 3.6 8 8 8zm72 0h24c4.4 0 8-3.6 8-8V88c0-4.4-3.6-8-8-8h-24c-4.4 0-8 3.6-8 8v64c0 4.4 3.6 8 8 8zm72 0h24c4.4 0 8-3.6 8-8V88c0-4.4-3.6-8-8-8h-24c-4.4 0-8 3.6-8 8v64c0 4.4 3.6 8 8 8z"/>
</svg> 